<svg width="467" height="432" viewBox="0 0 467 432" fill="none" xmlns="http://www.w3.org/2000/svg">
<path d="M450.87 260.162C437.69 300.102 409.31 343.872 367.53 358.122C304.41 379.662 298.77 431.422 184.21 431.072C166.35 431.022 149.77 429.152 134.47 425.732C126.25 423.892 118.39 421.602 110.92 418.892C43.0597 394.402 5.89971 336.192 0.59971 273.972C-6.39029 192.152 49.2997 150.872 85.5797 126.552C121.87 102.242 163.24 11.862 275.86 11.322C293.03 11.252 310.23 12.932 326.98 16.782C365.22 25.562 404.57 46.732 428.21 78.982C429.98 81.402 431.68 83.892 433.32 86.422C465.2 136.042 468.84 205.712 450.87 260.162Z" fill="#FFDEDE"/>
<path opacity="0.7" d="M450.87 260.162C437.69 300.102 409.31 343.872 367.53 358.122C304.41 379.662 298.77 431.422 184.21 431.072C166.35 431.022 149.77 429.152 134.47 425.732C126.25 423.892 118.39 421.602 110.92 418.892C43.0597 394.402 5.89971 336.192 0.59971 273.972C-6.39029 192.152 49.2997 150.872 85.5797 126.552C121.87 102.242 163.24 11.862 275.86 11.322C293.03 11.252 310.23 12.932 326.98 16.782C365.22 25.562 404.57 46.732 428.21 78.982C429.98 81.402 431.68 83.892 433.32 86.422C465.2 136.042 468.84 205.712 450.87 260.162Z" fill="#FFF2F2"/>
<path d="M466.23 413.342H4.48969" stroke="#263238" stroke-miterlimit="10" stroke-linecap="round" stroke-linejoin="round"/>
<path d="M21.7097 350.072C23.8597 351.012 29.1297 350.892 29.1297 350.892C29.1797 350.892 27.9997 347.442 27.8997 347.232C26.7397 344.812 23.0897 340.822 20.1197 341.222C17.9797 341.512 16.7897 343.652 17.2697 345.672C17.7597 347.742 19.8697 349.272 21.7097 350.072Z" fill="#FB3937"/>
<path d="M23.5197 365.332C25.7497 365.662 30.4497 364.292 30.8297 364.182C31.5697 366.812 32.5497 369.452 33.6797 372.072C34.3297 373.572 35.0197 375.052 35.7397 376.542C35.3097 375.912 34.9197 375.352 34.8597 375.282C33.1097 373.252 28.5297 370.372 25.7697 371.542C23.7797 372.382 23.1997 374.772 24.1997 376.582C25.2197 378.442 27.6597 379.352 29.6397 379.642C31.6497 379.932 35.6797 378.852 36.7397 378.552C37.0197 379.122 37.2997 379.682 37.5797 380.252C38.9397 382.962 40.3097 385.662 41.5697 388.352C42.0197 389.302 42.4197 390.252 42.8297 391.192C42.4497 390.632 42.1197 390.172 42.0697 390.102C40.3197 388.072 35.7397 385.192 32.9797 386.362C30.9897 387.202 30.4097 389.592 31.4097 391.402C32.4297 393.262 34.8697 394.172 36.8497 394.462C38.7697 394.742 42.4997 393.772 43.7597 393.422C44.1497 394.402 44.5397 395.392 44.8697 396.362C45.0797 397.032 45.3297 397.662 45.5097 398.342C45.6997 399.012 45.8797 399.682 46.0697 400.342C46.3797 401.622 46.6997 402.942 46.9697 404.202C47.1597 405.072 47.3297 405.912 47.4997 406.752C47.0697 405.802 46.1797 403.962 46.0897 403.822C44.6597 401.552 40.5797 398.012 37.6697 398.752C35.5797 399.282 34.6397 401.552 35.3497 403.502C36.0797 405.492 38.3497 406.772 40.2697 407.352C42.3797 407.992 47.0397 407.412 47.6197 407.332C47.8997 408.722 48.1597 410.082 48.3797 411.372C48.4997 412.052 48.5997 412.692 48.7097 413.332H50.5697C50.4297 412.592 50.2897 411.832 50.1297 411.042C49.8497 409.622 49.5297 408.122 49.1797 406.572C49.5297 406.432 51.5197 405.632 53.2797 404.642C54.8197 406.302 58.7497 408.252 59.2597 408.502C58.7197 409.822 58.1897 411.092 57.6697 412.292C57.5097 412.652 57.3597 412.992 57.2097 413.332H59.1597C59.2097 413.212 59.2597 413.102 59.3097 412.982C59.8597 411.652 60.4197 410.212 60.9797 408.732C61.5397 408.852 66.1597 409.792 68.3097 409.302C70.2597 408.862 72.6297 407.752 73.4997 405.822C74.3597 403.932 73.5897 401.602 71.5397 400.912C68.6997 399.952 64.3497 403.182 62.7597 405.342C62.6697 405.472 61.7997 406.962 61.2697 407.912C61.4997 407.302 61.7197 406.722 61.9497 406.092C62.3997 404.852 62.8197 403.602 63.2697 402.262C63.4697 401.602 63.6597 400.942 63.8597 400.272C64.0697 399.612 64.2097 398.892 64.3897 398.192C64.7797 396.572 65.0897 394.902 65.3697 393.222C66.4497 393.612 70.3297 394.962 72.3297 394.822C74.3297 394.682 76.8297 393.952 77.9897 392.172C79.1197 390.432 78.7197 388.012 76.7997 387.022C74.1297 385.642 69.3497 388.182 67.4497 390.072C67.3297 390.192 66.1197 391.702 65.4697 392.542C65.6297 391.532 65.7897 390.522 65.9197 389.492C66.2897 386.522 66.5697 383.492 66.8597 380.482C66.9497 379.562 67.0497 378.642 67.1497 377.722C67.5297 377.862 72.0997 379.562 74.3497 379.412C76.3497 379.272 78.8497 378.542 80.0097 376.762C81.1397 375.022 80.7397 372.602 78.8197 371.612C76.1497 370.232 71.3697 372.772 69.4697 374.662C69.3297 374.802 67.5897 376.982 67.1697 377.552C67.3797 375.522 67.6197 373.512 67.9297 371.532C68.3497 368.802 68.9197 366.142 69.6597 363.612C69.8397 363.682 74.5997 365.472 76.8997 365.312C78.8997 365.172 81.3997 364.442 82.5597 362.662C83.6897 360.922 83.2897 358.502 81.3697 357.512C78.6997 356.132 73.9197 358.672 72.0197 360.562C71.8697 360.712 69.9997 363.052 69.6897 363.502C69.7297 363.352 69.7597 363.192 69.8097 363.042C70.6297 360.342 71.7697 357.842 72.9497 355.542C73.6297 354.202 74.3597 352.972 75.0897 351.782C75.9397 352.212 79.8597 354.112 81.9397 354.192C83.9397 354.272 86.5097 353.822 87.8497 352.182C89.1697 350.582 89.0297 348.132 87.2297 346.932C84.7297 345.272 79.6997 347.272 77.6097 348.942C77.4997 349.032 76.4397 350.082 75.6797 350.862C76.0197 350.332 76.3597 349.772 76.6997 349.272C77.9597 347.382 79.2197 345.732 80.3497 344.272C80.9997 343.452 81.6097 342.722 82.1797 342.042C83.2297 342.022 87.4797 341.892 89.3397 341.022C91.1497 340.172 93.2197 338.582 93.6597 336.512C94.0897 334.482 92.8397 332.372 90.6897 332.142C87.7097 331.822 84.1597 335.912 83.0697 338.352C82.9797 338.562 81.8797 342.042 81.9397 342.042C81.9397 342.042 81.9897 342.042 81.9997 342.042C81.4297 342.682 80.8397 343.372 80.1997 344.152C79.0297 345.582 77.7297 347.212 76.4297 349.082C75.1197 350.952 73.7597 353.012 72.5197 355.312C71.2697 357.622 70.0797 360.112 69.1797 362.832C69.1697 362.862 69.1597 362.892 69.1497 362.932C69.1697 362.052 69.1297 359.592 69.0997 359.402C68.7597 356.742 66.5297 351.812 63.5797 351.272C61.4497 350.882 59.6497 352.542 59.4797 354.612C59.3097 356.722 60.8397 358.832 62.3297 360.172C64.0097 361.672 68.6897 363.132 69.0597 363.242C68.2297 365.842 67.5797 368.582 67.0897 371.392C66.7997 373.002 66.5697 374.622 66.3497 376.252C66.3397 375.492 66.3197 374.812 66.3097 374.712C65.9697 372.052 63.7397 367.122 60.7897 366.582C58.6597 366.192 56.8597 367.852 56.6997 369.922C56.5297 372.032 58.0597 374.142 59.5497 375.482C61.0597 376.832 65.0197 378.152 66.0697 378.492C65.9897 379.122 65.9097 379.742 65.8297 380.372C65.4697 383.382 65.1197 386.392 64.6897 389.332C64.5397 390.372 64.3497 391.382 64.1697 392.392C64.1597 391.722 64.1397 391.152 64.1297 391.062C63.7897 388.402 61.5597 383.472 58.6097 382.932C56.4797 382.542 54.6797 384.202 54.5097 386.272C54.3397 388.382 55.8697 390.492 57.3597 391.832C58.7997 393.122 62.4497 394.372 63.6997 394.782C63.4797 395.812 63.2597 396.852 62.9997 397.842C62.8097 398.512 62.6697 399.182 62.4397 399.842C62.2297 400.502 62.0097 401.162 61.7997 401.812C61.3497 403.052 60.8897 404.332 60.4197 405.532C60.0997 406.372 59.7797 407.162 59.4597 407.952C59.6197 406.922 59.8997 404.902 59.8997 404.732C59.9397 402.952 59.3097 400.062 58.0497 398.022C58.0597 397.762 58.0397 397.502 57.9997 397.232C57.6697 395.182 55.7497 393.662 53.6597 394.222C50.7597 394.992 48.9197 400.082 48.7797 402.762C48.7697 402.922 48.8797 404.642 48.9597 405.732C48.8097 405.102 48.6797 404.492 48.5197 403.842C48.2197 402.562 47.8697 401.292 47.5097 399.922C47.3097 399.272 47.1097 398.602 46.9097 397.942C46.7197 397.272 46.4397 396.592 46.2097 395.912C45.6397 394.342 44.9797 392.782 44.2797 391.222C45.3997 390.952 49.3697 389.942 50.9697 388.712C52.5597 387.492 54.2397 385.502 54.2297 383.382C54.2197 381.312 52.5397 379.512 50.3997 379.742C47.4197 380.062 44.8297 384.822 44.2897 387.442C44.2597 387.602 44.0797 389.532 43.9997 390.592C43.5697 389.662 43.1497 388.722 42.6897 387.792C41.3597 385.102 39.9197 382.432 38.5097 379.752C38.0797 378.932 37.6497 378.112 37.2297 377.292C37.6297 377.202 42.3797 376.102 44.1597 374.732C45.7497 373.512 47.4297 371.522 47.4197 369.402C47.4097 367.332 45.7297 365.532 43.5897 365.772C40.6097 366.092 38.0197 370.852 37.4797 373.472C37.4397 373.672 37.1897 376.442 37.1597 377.152C36.2197 375.342 35.2997 373.532 34.4697 371.712C33.3197 369.202 32.3197 366.672 31.5397 364.152C31.7297 364.112 36.6897 362.982 38.5197 361.582C40.1097 360.362 41.7897 358.372 41.7797 356.252C41.7697 354.182 40.0897 352.382 37.9397 352.612C34.9597 352.932 32.3697 357.692 31.8297 360.312C31.7897 360.522 31.5197 363.502 31.5097 364.042C31.4597 363.892 31.3997 363.742 31.3497 363.592C30.5497 360.892 30.1097 358.172 29.8297 355.602C29.6597 354.112 29.5897 352.682 29.5397 351.282C30.4897 351.162 34.7997 350.592 36.5797 349.512C38.2897 348.472 40.1797 346.682 40.3997 344.572C40.6097 342.512 39.1497 340.542 36.9897 340.542C33.9897 340.532 30.8897 344.972 30.0697 347.522C30.0197 347.662 29.7197 349.122 29.5197 350.182C29.5097 349.552 29.4897 348.902 29.4897 348.292C29.4897 346.022 29.6397 343.942 29.7797 342.102C29.8697 341.052 29.9697 340.112 30.0797 339.232C30.9497 338.632 34.4197 336.182 35.4897 334.432C36.5297 332.722 37.3797 330.262 36.6097 328.292C35.8497 326.362 33.6397 325.292 31.7197 326.282C29.0497 327.662 28.3497 333.022 28.7897 335.672C28.8297 335.902 29.8397 339.402 29.8797 339.372C29.8797 339.372 29.9197 339.342 29.9297 339.332C29.8097 340.182 29.6997 341.082 29.5897 342.082C29.4097 343.922 29.2197 346.002 29.1597 348.282C29.0997 350.562 29.0997 353.032 29.3397 355.642C29.5697 358.252 29.9497 360.992 30.6997 363.762C30.7097 363.792 30.7197 363.822 30.7297 363.852C30.2597 363.112 28.8697 361.082 28.7397 360.942C26.9897 358.912 22.4097 356.032 19.6497 357.202C17.6597 358.052 17.0797 360.432 18.0797 362.242C19.0997 364.122 21.5397 365.042 23.5197 365.332Z" fill="#FB3937"/>
<path d="M74.9697 351.232C75.0197 351.262 75.9297 347.732 75.9597 347.502C76.3297 344.852 75.4797 339.502 72.7797 338.202C70.8297 337.262 68.6597 338.392 67.9497 340.342C67.2297 342.332 68.1397 344.772 69.2297 346.452C70.5097 348.422 74.9697 351.232 74.9697 351.232Z" fill="#FB3937"/>
<path d="M163.74 384.142C164.73 384.572 167.16 384.522 167.17 384.522C167.2 384.522 166.65 382.932 166.6 382.832C166.07 381.712 164.38 379.872 163.01 380.062C162.02 380.192 161.47 381.182 161.69 382.112C161.92 383.062 162.89 383.772 163.74 384.142Z" fill="#FF9291"/>
<path d="M164.58 391.182C165.61 391.332 167.78 390.702 167.95 390.652C168.29 391.862 168.74 393.082 169.27 394.292C169.57 394.982 169.89 395.672 170.22 396.352C170.02 396.062 169.84 395.802 169.81 395.772C169 394.832 166.89 393.502 165.61 394.042C164.69 394.432 164.42 395.532 164.88 396.372C165.35 397.232 166.48 397.652 167.39 397.782C168.32 397.922 170.18 397.422 170.67 397.282C170.8 397.542 170.93 397.802 171.06 398.062C171.69 399.312 172.32 400.562 172.9 401.802C173.11 402.242 173.29 402.682 173.48 403.112C173.3 402.852 173.15 402.642 173.13 402.612C172.32 401.672 170.21 400.342 168.93 400.882C168.01 401.272 167.74 402.372 168.2 403.212C168.67 404.072 169.8 404.492 170.71 404.622C171.6 404.752 173.32 404.302 173.9 404.142C174.08 404.592 174.26 405.052 174.41 405.502C174.51 405.812 174.62 406.102 174.7 406.412C174.79 406.722 174.87 407.032 174.96 407.332C175.1 407.922 175.25 408.532 175.38 409.112C175.47 409.512 175.55 409.902 175.63 410.292C175.43 409.852 175.02 409.002 174.98 408.942C174.32 407.892 172.43 406.262 171.09 406.602C170.12 406.852 169.69 407.892 170.02 408.792C170.36 409.712 171.41 410.302 172.29 410.572C173.26 410.872 175.42 410.602 175.68 410.562C175.81 411.202 175.93 411.832 176.03 412.422C176.09 412.732 176.13 413.032 176.18 413.332H177.04C176.98 412.992 176.91 412.642 176.84 412.272C176.71 411.622 176.56 410.922 176.4 410.212C176.56 410.152 177.48 409.772 178.29 409.322C179 410.092 180.82 410.992 181.05 411.102C180.8 411.712 180.56 412.302 180.31 412.852C180.24 413.022 180.17 413.172 180.1 413.332H181C181.02 413.282 181.04 413.222 181.07 413.172C181.32 412.552 181.58 411.892 181.84 411.212C182.1 411.262 184.23 411.702 185.23 411.472C186.13 411.272 187.22 410.762 187.63 409.872C188.02 409.002 187.67 407.922 186.73 407.612C185.42 407.172 183.41 408.662 182.68 409.662C182.64 409.722 182.24 410.412 181.99 410.852C182.09 410.572 182.2 410.302 182.3 410.012C182.51 409.442 182.7 408.862 182.91 408.242C183 407.942 183.09 407.632 183.18 407.322C183.28 407.022 183.34 406.682 183.43 406.362C183.61 405.612 183.75 404.842 183.88 404.062C184.38 404.242 186.17 404.862 187.09 404.802C188.01 404.742 189.17 404.402 189.7 403.582C190.22 402.782 190.04 401.662 189.15 401.202C187.92 400.572 185.71 401.742 184.84 402.612C184.79 402.662 184.23 403.362 183.93 403.752C184 403.282 184.08 402.822 184.14 402.342C184.31 400.972 184.44 399.572 184.58 398.182C184.62 397.752 184.67 397.332 184.71 396.902C184.89 396.972 187 397.752 188.03 397.682C188.95 397.622 190.11 397.282 190.64 396.462C191.16 395.662 190.98 394.542 190.09 394.082C188.86 393.452 186.65 394.622 185.78 395.492C185.71 395.562 184.91 396.562 184.72 396.822C184.82 395.882 184.93 394.952 185.07 394.042C185.27 392.782 185.53 391.552 185.87 390.382C185.95 390.412 188.15 391.242 189.21 391.172C190.13 391.112 191.29 390.772 191.82 389.952C192.34 389.152 192.16 388.032 191.27 387.572C190.04 386.942 187.83 388.112 186.96 388.982C186.89 389.052 186.03 390.132 185.89 390.342C185.91 390.272 185.92 390.202 185.95 390.132C186.33 388.892 186.85 387.732 187.4 386.672C187.72 386.052 188.05 385.482 188.39 384.932C188.78 385.132 190.59 386.002 191.55 386.042C192.47 386.082 193.66 385.872 194.28 385.112C194.89 384.372 194.82 383.242 193.99 382.692C192.84 381.922 190.51 382.842 189.55 383.622C189.5 383.662 189.01 384.152 188.66 384.512C188.82 384.262 188.97 384.012 189.13 383.782C189.71 382.912 190.29 382.142 190.82 381.472C191.12 381.092 191.4 380.752 191.66 380.442C192.15 380.432 194.11 380.372 194.96 379.972C195.8 379.582 196.75 378.852 196.95 377.892C197.15 376.952 196.57 375.982 195.58 375.872C194.2 375.722 192.57 377.612 192.06 378.742C192.02 378.842 191.51 380.442 191.54 380.442C191.54 380.442 191.56 380.442 191.57 380.442C191.31 380.742 191.03 381.062 190.74 381.412C190.2 382.072 189.6 382.822 189 383.692C188.4 384.552 187.77 385.502 187.19 386.572C186.61 387.642 186.06 388.782 185.65 390.042C185.65 390.052 185.64 390.072 185.64 390.082C185.65 389.672 185.63 388.542 185.62 388.452C185.46 387.222 184.43 384.952 183.07 384.702C182.09 384.522 181.26 385.292 181.18 386.242C181.1 387.212 181.81 388.192 182.5 388.812C183.28 389.502 185.43 390.182 185.61 390.232C185.23 391.432 184.93 392.702 184.7 393.992C184.57 394.732 184.46 395.482 184.36 396.242C184.35 395.892 184.35 395.582 184.34 395.532C184.18 394.302 183.15 392.032 181.79 391.782C180.81 391.602 179.98 392.372 179.9 393.322C179.82 394.292 180.53 395.272 181.22 395.892C181.92 396.512 183.75 397.122 184.23 397.282C184.19 397.572 184.16 397.862 184.12 398.152C183.95 399.542 183.79 400.932 183.6 402.282C183.53 402.762 183.44 403.232 183.36 403.692C183.36 403.382 183.35 403.122 183.34 403.082C183.18 401.852 182.15 399.582 180.79 399.332C179.81 399.152 178.98 399.922 178.9 400.872C178.82 401.842 179.53 402.822 180.22 403.432C180.89 404.032 182.57 404.602 183.14 404.792C183.04 405.272 182.94 405.752 182.82 406.202C182.73 406.512 182.67 406.822 182.56 407.122C182.46 407.432 182.36 407.732 182.27 408.032C182.06 408.602 181.85 409.192 181.63 409.752C181.48 410.142 181.33 410.502 181.19 410.872C181.26 410.402 181.39 409.462 181.39 409.382C181.41 408.562 181.12 407.222 180.54 406.282C180.54 406.162 180.54 406.042 180.52 405.922C180.37 404.972 179.48 404.272 178.52 404.532C177.18 404.892 176.33 407.242 176.27 408.472C176.27 408.542 176.31 409.342 176.35 409.842C176.28 409.552 176.22 409.272 176.15 408.972C176.01 408.382 175.85 407.792 175.69 407.162C175.6 406.862 175.51 406.552 175.41 406.242C175.32 405.932 175.19 405.622 175.09 405.302C174.83 404.582 174.52 403.862 174.2 403.142C174.72 403.022 176.55 402.552 177.29 401.982C178.02 401.422 178.8 400.502 178.79 399.522C178.78 398.562 178.01 397.732 177.02 397.842C175.64 397.992 174.45 400.182 174.2 401.392C174.18 401.472 174.1 402.352 174.07 402.842C173.87 402.412 173.68 401.982 173.47 401.552C172.85 400.312 172.19 399.082 171.54 397.842C171.34 397.462 171.14 397.082 170.95 396.702C171.13 396.662 173.33 396.152 174.15 395.522C174.88 394.962 175.66 394.042 175.65 393.062C175.64 392.102 174.87 391.272 173.88 391.382C172.5 391.532 171.31 393.722 171.06 394.932C171.04 395.022 170.93 396.302 170.91 396.632C170.48 395.802 170.05 394.962 169.67 394.122C169.14 392.962 168.68 391.792 168.32 390.632C168.41 390.612 170.7 390.092 171.54 389.442C172.27 388.882 173.05 387.962 173.04 386.982C173.03 386.022 172.26 385.192 171.27 385.302C169.89 385.452 168.7 387.642 168.45 388.852C168.43 388.952 168.31 390.322 168.3 390.572C168.28 390.502 168.25 390.432 168.23 390.362C167.86 389.112 167.66 387.862 167.53 386.672C167.45 385.982 167.42 385.322 167.4 384.682C167.84 384.632 169.83 384.362 170.65 383.862C171.44 383.382 172.31 382.552 172.41 381.582C172.51 380.632 171.83 379.722 170.83 379.722C169.45 379.722 168.02 381.772 167.64 382.942C167.62 383.002 167.48 383.682 167.39 384.172C167.39 383.882 167.38 383.582 167.38 383.302C167.38 382.252 167.45 381.292 167.51 380.442C167.55 379.962 167.6 379.522 167.65 379.122C168.05 378.842 169.65 377.712 170.15 376.912C170.63 376.122 171.02 374.982 170.67 374.072C170.32 373.182 169.3 372.682 168.41 373.142C167.18 373.782 166.86 376.252 167.06 377.472C167.08 377.582 167.54 379.192 167.56 379.182C167.56 379.182 167.58 379.172 167.58 379.162C167.53 379.552 167.47 379.972 167.42 380.432C167.34 381.282 167.25 382.242 167.22 383.292C167.19 384.342 167.19 385.482 167.3 386.692C167.41 387.902 167.58 389.162 167.93 390.442C167.93 390.452 167.94 390.472 167.94 390.482C167.72 390.142 167.08 389.202 167.02 389.132C166.21 388.192 164.1 386.862 162.82 387.402C161.9 387.792 161.63 388.892 162.09 389.732C162.54 390.622 163.66 391.042 164.58 391.182Z" fill="#FF9291"/>
<path d="M188.33 384.672C188.35 384.682 188.77 383.052 188.79 382.952C188.96 381.732 188.57 379.262 187.32 378.662C186.42 378.232 185.42 378.752 185.09 379.652C184.76 380.572 185.18 381.702 185.68 382.472C186.27 383.382 188.33 384.672 188.33 384.672Z" fill="#FF9291"/>
<path d="M207.86 18.4921C201.81 22.0321 199.52 28.8821 198.43 32.1721C196.92 36.7121 191.62 29.1421 181.02 32.9321C170.42 36.7221 168.91 45.0421 166.63 47.3221C164.35 49.6021 149.21 55.6521 149.21 55.6521H301.16" stroke="#828E88" stroke-miterlimit="10" stroke-linecap="round" stroke-linejoin="round"/>
<path d="M308.74 55.6421H327.15C327.15 55.6421 330.18 38.9821 323.36 30.6521C316.55 22.3221 301.4 34.4421 296.86 22.3221C296.86 22.3221 283.23 2.63206 266.57 1.12206C249.91 -0.387942 243.1 12.4821 237.8 19.2921C232.5 26.1021 229.47 16.2621 216.6 16.2621" stroke="#828E88" stroke-miterlimit="10" stroke-linecap="round" stroke-linejoin="round"/>
<path d="M236.01 42.1221C232.92 44.9921 232.5 48.8321 232.5 48.8321" stroke="#828E88" stroke-miterlimit="10" stroke-linecap="round" stroke-linejoin="round"/>
<path d="M293.83 29.1421C293.83 29.1421 283.23 18.5421 271.11 19.3021C259 20.0621 263.54 34.4421 258.24 38.9921C252.94 43.5321 246.88 37.4821 240.07 39.7521" stroke="#828E88" stroke-miterlimit="10" stroke-linecap="round" stroke-linejoin="round"/>
<path d="M55.9797 65.782C52.0197 68.092 50.5297 72.572 49.8197 74.722C48.8297 77.692 45.3697 72.742 38.4397 75.212C31.5097 77.682 30.5297 83.122 29.0397 84.612C27.5597 86.092 17.6597 90.052 17.6597 90.052H116.94" stroke="#828E88" stroke-miterlimit="10" stroke-linecap="round" stroke-linejoin="round"/>
<path d="M121.89 90.052H133.92C133.92 90.052 135.9 79.172 131.45 73.732C127 68.292 117.1 76.202 114.14 68.292C114.14 68.292 105.24 55.432 94.3497 54.442C83.4597 53.442 78.9997 61.852 75.5397 66.312C72.0797 70.762 70.0997 64.332 61.6897 64.332" stroke="#828E88" stroke-miterlimit="10" stroke-linecap="round" stroke-linejoin="round"/>
<path d="M74.3696 81.222C72.3496 83.102 72.0696 85.602 72.0696 85.602" stroke="#828E88" stroke-miterlimit="10" stroke-linecap="round" stroke-linejoin="round"/>
<path d="M112.15 72.742C112.15 72.742 105.22 65.812 97.3097 66.312C89.3997 66.812 92.3597 76.202 88.8997 79.172C85.4397 82.142 81.4797 78.182 77.0297 79.662" stroke="#828E88" stroke-miterlimit="10" stroke-linecap="round" stroke-linejoin="round"/>
<path d="M258.12 105.632C255.36 107.242 254.32 110.362 253.82 111.862C253.13 113.932 250.72 110.482 245.89 112.202C241.06 113.922 240.37 117.722 239.34 118.752C238.31 119.782 231.41 122.542 231.41 122.542H300.64" stroke="#828E88" stroke-miterlimit="10" stroke-linecap="round" stroke-linejoin="round"/>
<path d="M304.08 122.562H312.47C312.47 122.562 313.85 114.972 310.75 111.182C307.65 107.392 300.75 112.902 298.68 107.392C298.68 107.392 292.47 98.422 284.88 97.732C277.29 97.042 274.19 102.902 271.77 106.012C269.36 109.112 267.98 104.632 262.11 104.632" stroke="#828E88" stroke-miterlimit="10" stroke-linecap="round" stroke-linejoin="round"/>
<path d="M270.95 116.402C269.54 117.712 269.35 119.462 269.35 119.462" stroke="#828E88" stroke-miterlimit="10" stroke-linecap="round" stroke-linejoin="round"/>
<path d="M297.29 110.482C297.29 110.482 292.46 105.652 286.94 106.002C281.42 106.352 283.49 112.902 281.08 114.972C278.67 117.042 275.91 114.282 272.8 115.322" stroke="#828E88" stroke-miterlimit="10" stroke-linecap="round" stroke-linejoin="round"/>
<path d="M87.1397 323.122V281.412H36.4197V256.682L80.6397 153.362H114.38V258.362H131.78V281.412H114.38V323.122H87.1397ZM60.7297 258.362H87.1397V184.592L60.7297 258.362Z" fill="#141615" stroke="#141615" stroke-miterlimit="10" stroke-linecap="round" stroke-linejoin="round"/>
<path d="M191.3 325.632C181.38 325.632 173.17 323.532 166.67 319.342C160.17 315.152 155.28 309.352 152 301.942C148.72 294.542 147.07 286.012 147.07 276.372V201.132C147.07 191.212 148.64 182.512 151.79 175.042C154.93 167.572 159.75 161.732 166.25 157.542C172.75 153.352 181.09 151.252 191.29 151.252C201.49 151.252 209.84 153.352 216.33 157.542C222.83 161.732 227.65 167.572 230.79 175.042C233.93 182.522 235.51 191.212 235.51 201.132V276.372C235.51 286.012 233.87 294.532 230.58 301.942C227.3 309.352 222.41 315.142 215.91 319.342C209.43 323.542 201.22 325.632 191.3 325.632ZM191.3 300.692C195.63 300.692 198.84 299.362 200.94 296.712C203.04 294.062 204.43 290.842 205.13 287.072C205.83 283.302 206.18 279.602 206.18 275.962V201.562C206.18 197.652 205.87 193.772 205.24 189.932C204.61 186.092 203.25 182.842 201.15 180.182C199.05 177.532 195.77 176.202 191.3 176.202C186.83 176.202 183.55 177.532 181.45 180.182C179.35 182.842 177.99 186.082 177.36 189.932C176.73 193.772 176.42 197.652 176.42 201.562V275.962C176.42 279.602 176.8 283.302 177.57 287.072C178.34 290.842 179.77 294.062 181.87 296.712C183.96 299.362 187.11 300.692 191.3 300.692Z" fill="#141615" stroke="#141615" stroke-miterlimit="10" stroke-linecap="round" stroke-linejoin="round"/>
<path d="M304.68 323.122V281.412H253.96V256.682L298.18 153.362H331.92V258.362H349.32V281.412H331.92V323.122H304.68ZM278.27 258.362H304.68V184.592L278.27 258.362Z" fill="#141615" stroke="#141615" stroke-miterlimit="10" stroke-linecap="round" stroke-linejoin="round"/>
<path d="M99.7697 323.122V281.412H49.0597V256.682L93.2797 153.362H127.02V258.362H144.42V281.412H127.02V323.122H99.7697ZM73.3697 258.362H99.7797V184.592L73.3697 258.362Z" fill="white" stroke="#141615" stroke-miterlimit="10" stroke-linecap="round" stroke-linejoin="round"/>
<path d="M203.93 325.632C194.01 325.632 185.8 323.532 179.3 319.342C172.8 315.152 167.91 309.352 164.63 301.942C161.35 294.542 159.7 286.012 159.7 276.372V201.132C159.7 191.212 161.27 182.512 164.42 175.042C167.56 167.572 172.38 161.732 178.88 157.542C185.38 153.352 193.72 151.252 203.92 151.252C214.12 151.252 222.47 153.352 228.96 157.542C235.46 161.732 240.28 167.572 243.42 175.042C246.56 182.522 248.14 191.212 248.14 201.132V276.372C248.14 286.012 246.5 294.532 243.21 301.942C239.93 309.352 235.04 315.142 228.54 319.342C222.06 323.542 213.85 325.632 203.93 325.632ZM203.93 300.692C208.26 300.692 211.47 299.362 213.57 296.712C215.67 294.062 217.06 290.842 217.76 287.072C218.46 283.302 218.81 279.602 218.81 275.962V201.562C218.81 197.652 218.5 193.772 217.87 189.932C217.24 186.092 215.88 182.842 213.78 180.182C211.68 177.532 208.4 176.202 203.93 176.202C199.46 176.202 196.18 177.532 194.08 180.182C191.98 182.842 190.62 186.082 189.99 189.932C189.36 193.772 189.05 197.652 189.05 201.562V275.962C189.05 279.602 189.43 283.302 190.2 287.072C190.97 290.842 192.4 294.062 194.5 296.712C196.6 299.362 199.74 300.692 203.93 300.692Z" fill="white" stroke="#141615" stroke-miterlimit="10" stroke-linecap="round" stroke-linejoin="round"/>
<path d="M317.31 323.122V281.412H266.6V256.682L310.82 153.362H344.56V258.362H361.96V281.412H344.56V323.122H317.31ZM290.91 258.362H317.32V184.592L290.91 258.362Z" fill="white" stroke="#141615" stroke-miterlimit="10" stroke-linecap="round" stroke-linejoin="round"/>
<path d="M92.0597 145.152C89.6997 145.152 87.8297 144.712 86.4297 143.842C85.0297 142.962 84.0297 141.702 83.4297 140.062C82.8297 138.422 82.5297 136.472 82.5297 134.232V121.792C82.5297 119.552 82.8297 117.622 83.4297 116.022C84.0297 114.422 85.0297 113.192 86.4297 112.342C87.8297 111.492 89.6997 111.072 92.0597 111.072C94.4697 111.072 96.3697 111.492 97.7497 112.342C99.1297 113.192 100.13 114.412 100.75 116.022C101.37 117.622 101.67 119.552 101.67 121.792V134.282C101.67 136.502 101.36 138.422 100.75 140.052C100.13 141.682 99.1297 142.942 97.7497 143.832C96.3697 144.712 94.4697 145.152 92.0597 145.152ZM92.0597 140.682C93.0697 140.682 93.8197 140.462 94.2997 140.022C94.7797 139.582 95.0997 138.982 95.2597 138.212C95.4197 137.442 95.5097 136.612 95.5097 135.702V120.382C95.5097 119.452 95.4297 118.612 95.2597 117.872C95.0997 117.132 94.7697 116.552 94.2997 116.122C93.8197 115.702 93.0697 115.482 92.0597 115.482C91.0997 115.482 90.3797 115.692 89.8797 116.122C89.3897 116.542 89.0597 117.132 88.8897 117.872C88.7297 118.612 88.6397 119.442 88.6397 120.382V135.702C88.6397 136.602 88.7097 137.442 88.8697 138.212C89.0197 138.982 89.3397 139.582 89.8297 140.022C90.3397 140.462 91.0797 140.682 92.0597 140.682Z" fill="#FB3937"/>
<path d="M115.18 145.152C112.82 145.152 110.95 144.712 109.55 143.842C108.15 142.962 107.15 141.702 106.55 140.062C105.95 138.422 105.65 136.472 105.65 134.232V121.792C105.65 119.552 105.95 117.622 106.55 116.022C107.15 114.422 108.15 113.192 109.55 112.342C110.95 111.492 112.82 111.072 115.18 111.072C117.59 111.072 119.49 111.492 120.87 112.342C122.25 113.192 123.25 114.412 123.87 116.022C124.49 117.622 124.79 119.552 124.79 121.792V134.282C124.79 136.502 124.48 138.422 123.87 140.052C123.25 141.682 122.25 142.942 120.87 143.832C119.49 144.712 117.59 145.152 115.18 145.152ZM115.18 140.682C116.19 140.682 116.94 140.462 117.42 140.022C117.9 139.582 118.22 138.982 118.38 138.212C118.54 137.442 118.63 136.612 118.63 135.702V120.382C118.63 119.452 118.55 118.612 118.38 117.872C118.22 117.132 117.89 116.552 117.42 116.122C116.94 115.702 116.19 115.482 115.18 115.482C114.22 115.482 113.5 115.692 113 116.122C112.51 116.542 112.18 117.132 112.01 117.872C111.85 118.612 111.76 119.442 111.76 120.382V135.702C111.76 136.602 111.83 137.442 111.99 138.212C112.14 138.982 112.46 139.582 112.96 140.022C113.46 140.462 114.2 140.682 115.18 140.682Z" fill="#FB3937"/>
<path d="M129.27 144.702V111.432H139.04C141.04 111.432 142.66 111.802 143.91 112.542C145.16 113.282 146.07 114.352 146.66 115.762C147.25 117.172 147.54 118.882 147.54 120.872C147.54 123.032 147.17 124.782 146.43 126.112C145.69 127.442 144.66 128.402 143.33 129.012C142 129.612 140.43 129.912 138.63 129.912H135.34V144.702H129.27ZM135.35 125.652H137.65C138.74 125.652 139.6 125.492 140.22 125.182C140.84 124.872 141.26 124.362 141.49 123.662C141.72 122.962 141.84 122.022 141.84 120.852C141.84 119.652 141.75 118.672 141.57 117.912C141.39 117.162 141.01 116.602 140.42 116.252C139.83 115.892 138.91 115.722 137.65 115.722H135.35V125.652Z" fill="#FB3937"/>
<path d="M159.13 145.152C157.13 145.152 155.46 144.762 154.12 143.982C152.78 143.202 151.77 142.062 151.08 140.552C150.4 139.042 150.01 137.202 149.93 135.012L155.15 133.982C155.2 135.272 155.36 136.402 155.62 137.392C155.88 138.382 156.28 139.142 156.81 139.672C157.34 140.202 158.05 140.472 158.92 140.472C159.91 140.472 160.6 140.182 161.01 139.592C161.42 139.002 161.63 138.262 161.63 137.352C161.63 135.902 161.3 134.712 160.64 133.782C159.98 132.852 159.11 131.922 158.01 130.992L153.82 127.292C152.64 126.282 151.7 125.152 151.01 123.902C150.31 122.652 149.96 121.112 149.96 119.282C149.96 116.652 150.73 114.632 152.26 113.202C153.79 111.782 155.89 111.062 158.54 111.062C160.1 111.062 161.4 111.302 162.44 111.782C163.48 112.262 164.31 112.922 164.92 113.772C165.54 114.622 165.99 115.582 166.3 116.672C166.6 117.752 166.79 118.892 166.88 120.102L161.71 121.002C161.65 119.962 161.54 119.032 161.36 118.212C161.18 117.392 160.87 116.752 160.42 116.282C159.97 115.812 159.3 115.582 158.43 115.582C157.53 115.582 156.83 115.872 156.36 116.462C155.88 117.052 155.64 117.782 155.64 118.662C155.64 119.782 155.87 120.712 156.34 121.432C156.81 122.162 157.48 122.902 158.35 123.672L162.5 127.332C163.87 128.482 165.04 129.832 166.01 131.382C166.98 132.932 167.47 134.802 167.47 136.992C167.47 138.582 167.12 139.992 166.42 141.222C165.72 142.452 164.75 143.422 163.5 144.122C162.26 144.812 160.8 145.152 159.13 145.152Z" fill="#FB3937"/>
<path d="M170.18 144.702V139.282H175.6V144.702H170.18ZM171.9 136.902L170.22 111.482H175.81L173.84 136.902H171.9Z" fill="#FB3937"/>
<path d="M319.73 343.712V350.862H323.46V346.672C323.46 344.832 324.95 343.342 326.79 343.342H339.01C340.85 343.342 342.34 344.832 342.34 346.672V350.862H346.07V343.712C346.07 341.872 344.58 340.382 342.74 340.382H323.07C321.22 340.382 319.73 341.872 319.73 343.712Z" fill="#FB3937" stroke="#FB3937" stroke-miterlimit="10" stroke-linecap="round" stroke-linejoin="round"/>
<path d="M359 348.912H288.46C285.86 348.912 283.76 351.022 283.76 353.612V410.312C283.76 411.982 285.12 413.342 286.79 413.342H360.68C362.35 413.342 363.71 411.982 363.71 410.312V353.612C363.7 351.022 361.6 348.912 359 348.912Z" fill="#FB3937" stroke="#FB3937" stroke-miterlimit="10" stroke-linecap="round" stroke-linejoin="round"/>
<path d="M368.78 348.912H298.24C295.64 348.912 293.54 351.022 293.54 353.612V410.312C293.54 411.982 294.9 413.342 296.57 413.342H370.46C372.13 413.342 373.49 411.982 373.49 410.312V353.612C373.48 351.022 371.37 348.912 368.78 348.912Z" fill="#FC9D9C" stroke="#FB3937" stroke-miterlimit="10" stroke-linecap="round" stroke-linejoin="round"/>
<path d="M393.54 222.372C393.54 222.372 373.43 282.772 371.7 293.702C369.96 304.632 371.08 318.212 372.13 325.082C373.17 331.952 383.88 391.262 383.88 391.262C383.88 391.262 381.23 390.372 381.04 392.282C380.85 394.202 381.51 402.312 381.51 402.312C381.51 402.312 378.73 406.202 371.42 410.432C364.11 414.662 360.55 415.942 362.74 417.332C364.92 418.712 374.26 419.212 378.07 418.642C381.88 418.072 392.13 416.882 393.8 416.602C395.47 416.322 400.51 417.402 402.12 414.492C403.73 411.582 402.56 402.772 402.97 399.652C403.37 396.532 401.11 391.572 401.09 390.852C401.07 390.132 399.07 323.102 399.07 323.102L400.34 306.452C400.34 306.452 399.97 322.312 401.79 324.072C403.61 325.842 422.63 392.022 422.63 392.022L420.79 394.932L423.09 401.332L421.27 405.442C421.27 405.442 412.62 413.532 409.08 415.532C405.54 417.532 401.97 418.092 403.92 419.712C405.87 421.342 424.97 420.412 424.97 420.412L444.95 416.362C444.95 416.362 447.98 412.942 447.43 410.092C446.89 407.232 444.26 397.022 444.26 397.022C444.26 397.022 444.9 383.622 444.17 383.162C443.44 382.702 439.74 377.772 439.46 375.862C439.18 373.952 437.1 336.522 434.9 330.232C432.7 323.942 429.97 314.092 429.97 314.092C429.97 314.092 431.52 312.522 431.62 310.842C431.72 309.152 431.23 306.082 431.23 306.082C431.23 306.082 452.1 251.782 453.05 248.672C454.01 245.562 458.31 228.842 458.31 222.142C458.31 215.452 457.83 210.432 457.83 210.432C457.83 210.432 441.58 217.842 425.09 218.552C408.6 219.272 394.02 218.312 394.02 218.312L393.54 222.372Z" fill="#263238" stroke="#263238" stroke-miterlimit="10" stroke-linecap="round" stroke-linejoin="round"/>
<path d="M443.49 224.522C443.49 224.522 443.49 240.772 451.61 243.882" stroke="white" stroke-miterlimit="10" stroke-linecap="round" stroke-linejoin="round"/>
<path d="M455.2 219.742C455.2 219.742 455.68 230.732 453.53 240.532" stroke="white" stroke-miterlimit="10" stroke-linecap="round" stroke-linejoin="round"/>
<path d="M439.61 269.552C437.38 274.292 435.68 277.972 435.6 278.292" stroke="white" stroke-miterlimit="10" stroke-linecap="round" stroke-linejoin="round"/>
<path d="M450.42 246.752C450.42 246.752 445.21 257.692 440.97 266.692" stroke="white" stroke-miterlimit="10" stroke-linecap="round" stroke-linejoin="round"/>
<path d="M402.41 291.512L411.23 253.682L401.91 245.552" stroke="white" stroke-miterlimit="10" stroke-linecap="round" stroke-linejoin="round"/>
<path d="M400.49 299.722L401.41 295.802" stroke="white" stroke-miterlimit="10" stroke-linecap="round" stroke-linejoin="round"/>
<path d="M354.61 135.812L330.68 146.232C330.68 146.232 344.96 116.512 345.54 114.772C346.12 113.032 337.63 98.3721 337.82 97.7921C338.01 97.2121 345.35 88.3321 345.54 86.4021C345.73 84.4721 349.79 77.7221 346.7 77.3321C343.61 76.9421 327.21 92.1921 326.82 96.0521C326.43 99.9121 334.15 113.032 334.93 114.192C335.7 115.352 295.17 158.772 294.4 165.722C293.63 172.672 296.91 177.112 302.7 177.882C308.49 178.652 354.04 163.022 360.98 161.092C367.93 159.162 370.24 162.252 370.24 162.252C370.24 162.252 392.05 188.692 393.59 191.972C395.13 195.252 394.36 207.412 392.63 211.082C390.89 214.752 388.96 221.122 389.93 222.082C390.9 223.042 391.6 224.232 394.5 225.012C397.39 225.782 417.53 228.262 428.92 226.522C440.31 224.782 453.82 218.802 456.9 216.482C459.99 214.162 460.37 211.462 460.37 207.992C460.37 204.522 458.05 201.432 456.51 197.952C454.97 194.482 444.74 162.632 440.49 152.402C436.24 142.172 437.6 134.452 421.58 125.382C405.56 116.312 386.77 118.212 386.77 118.212L354.61 135.812Z" fill="#FF6561" stroke="#263238" stroke-miterlimit="10" stroke-linecap="round" stroke-linejoin="round"/>
<path d="M329.72 160.782L329.53 163.792" stroke="#263238" stroke-miterlimit="10" stroke-linecap="round" stroke-linejoin="round"/>
<path d="M324.51 165.532L330.68 146.232L329.87 158.522" stroke="#263238" stroke-miterlimit="10" stroke-linecap="round" stroke-linejoin="round"/>
<path d="M323.93 129.052C323.93 129.052 324.89 136.382 334.35 136.772" stroke="#263238" stroke-miterlimit="10" stroke-linecap="round" stroke-linejoin="round"/>
<path d="M368.12 160.512C368.12 160.512 361.17 155.882 354.03 153.562L368.12 160.512Z" fill="white"/>
<path d="M368.12 160.512C368.12 160.512 361.17 155.882 354.03 153.562" stroke="#263238" stroke-miterlimit="10" stroke-linecap="round" stroke-linejoin="round"/>
<path d="M351.93 156.052C351.16 155.922 350.38 155.802 349.6 155.692" stroke="#263238" stroke-miterlimit="10" stroke-linecap="round" stroke-linejoin="round"/>
<path d="M365.62 159.162C365.62 159.162 360.7 157.722 354.65 156.542" stroke="#263238" stroke-miterlimit="10" stroke-linecap="round" stroke-linejoin="round"/>
<path d="M401 198.582C401.68 199.142 402.16 199.502 402.29 199.502" stroke="#263238" stroke-miterlimit="10" stroke-linecap="round" stroke-linejoin="round"/>
<path d="M393.6 191.972C393.6 191.972 397 195.132 399.56 197.362" stroke="#263238" stroke-miterlimit="10" stroke-linecap="round" stroke-linejoin="round"/>
<path d="M435.28 225.362L452.46 214.552" stroke="#263238" stroke-miterlimit="10" stroke-linecap="round" stroke-linejoin="round"/>
<path d="M445.07 183.222C443.13 191.072 439.38 204.432 434.9 210.882" stroke="#263238" stroke-miterlimit="10" stroke-linecap="round" stroke-linejoin="round"/>
<path d="M446.48 177.112C446.48 177.112 446.24 178.292 445.78 180.242" stroke="#263238" stroke-miterlimit="10" stroke-linecap="round" stroke-linejoin="round"/>
<path d="M446.48 187.342C446.48 187.342 442.81 203.362 439.92 207.802" stroke="#263238" stroke-miterlimit="10" stroke-linecap="round" stroke-linejoin="round"/>
<path d="M340.74 125.172C343.27 119.832 345.33 115.412 345.55 114.772C346.13 113.032 337.64 98.3721 337.83 97.7921C338.02 97.2121 345.36 88.3321 345.55 86.4021C345.74 84.4721 349.8 77.7221 346.71 77.3321C343.62 76.9421 327.22 92.1921 326.83 96.0521C326.44 99.9121 334.16 113.032 334.94 114.192C335.1 114.432 333.42 116.572 330.66 119.852C331.72 122.472 334.35 125.792 340.74 125.172Z" fill="white" stroke="#263238" stroke-miterlimit="10" stroke-linecap="round" stroke-linejoin="round"/>
<path d="M337.38 87.4521C337.38 87.4521 332.54 96.8221 332.72 97.5321" stroke="#263238" stroke-miterlimit="10" stroke-linecap="round" stroke-linejoin="round"/>
<path d="M333.79 87.5721C333.79 87.5721 328.27 95.4021 328.63 96.6521" stroke="#263238" stroke-miterlimit="10" stroke-linecap="round" stroke-linejoin="round"/>
<path d="M375.26 157.622L382.98 173.252L386.65 173.442L389.74 155.882L387.23 151.832L385.49 162.832L380.86 162.632L375.46 154.532L375.26 157.622Z" fill="#FF6561" stroke="#263238" stroke-miterlimit="10" stroke-linecap="round" stroke-linejoin="round"/>
<path d="M382.98 173.252L376.59 219.842L383.99 235.402L391.91 219.232L386.65 173.442L382.98 173.252Z" fill="#FF6561" stroke="#263238" stroke-miterlimit="10" stroke-linecap="round" stroke-linejoin="round"/>
<path d="M381.84 170.922L387.76 167.162L389.59 156.732L386.11 158.952L385.49 162.832L380.86 162.632L380.7 162.392L378.36 163.882L381.84 170.922Z" fill="#263238"/>
<path d="M386.65 173.442L386.66 173.392L386.58 173.442H386.65Z" fill="#263238"/>
<path d="M388.23 187.192L380.38 192.182L378.99 202.332L389.22 195.822L388.23 187.192Z" fill="#263238"/>
<path d="M387.64 182.032L386.65 173.442H386.58L382.61 175.972L381.22 186.122L387.64 182.032Z" fill="#263238"/>
<path d="M389.81 200.972L378.16 208.392L376.76 218.542L390.81 209.602L389.81 200.972Z" fill="#263238"/>
<path d="M388.73 225.722L391.91 219.232L391.4 214.762L378.18 223.182L381.56 230.292L388.73 225.722Z" fill="#263238"/>
<path d="M369.86 139.672C369.86 139.672 368.32 149.132 368.51 153.372C368.7 157.622 370.83 165.142 370.83 165.142L380.29 154.332L396.12 164.172C396.12 164.172 395.54 144.102 395.54 143.522C395.54 142.942 391.87 121.332 390.72 119.202C389.57 117.072 386.47 115.922 384.74 116.312C382.98 116.702 369.86 139.672 369.86 139.672Z" fill="#FF6561" stroke="#263238" stroke-miterlimit="10" stroke-linecap="round" stroke-linejoin="round"/>
<path d="M343.2 86.952C343.2 86.952 342.7 101.092 343.03 106.742C343.36 112.392 342.53 116.892 344.03 121.542C345.53 126.202 347.19 135.182 348.69 138.172C350.19 141.162 353.35 143.992 358 143.992C362.65 143.992 367.81 140.162 370.31 137.672C372.8 135.182 377.13 131.682 379.46 127.192C381.79 122.702 379.79 111.392 380.13 108.232C380.46 105.072 381.13 99.582 381.13 99.582C381.13 99.582 384.46 91.432 381.8 87.602C379.14 83.772 367.33 79.452 358.35 80.282C349.35 81.132 343.2 86.952 343.2 86.952Z" fill="white" stroke="#263238" stroke-miterlimit="10" stroke-linecap="round" stroke-linejoin="round"/>
<path d="M351.02 102.922L352.35 107.912C352.35 107.912 348.36 119.552 349.36 120.222C350.36 120.892 358.51 120.052 358.51 120.052" stroke="#263238" stroke-miterlimit="10" stroke-linecap="round" stroke-linejoin="round"/>
<path d="M357.5 97.762C357.5 97.762 357.33 99.592 358 99.922C358.67 100.252 365.15 102.752 366.15 102.412C367.15 102.082 365.82 100.752 364.99 100.412C364.16 100.092 357.17 96.262 357.5 97.762Z" fill="#263238" stroke="#263238" stroke-miterlimit="10" stroke-linecap="round" stroke-linejoin="round"/>
<path d="M351.02 100.422C351.02 100.422 345.7 103.412 344.7 103.582C343.7 103.752 345.37 101.582 345.37 101.582C345.37 101.582 349.36 97.092 350.36 97.752C351.35 98.432 351.02 100.422 351.02 100.422Z" fill="#263238" stroke="#263238" stroke-miterlimit="10" stroke-linecap="round" stroke-linejoin="round"/>
<path d="M359.5 107.082C359.5 107.082 362.33 110.072 366.15 107.752" stroke="#263238" stroke-miterlimit="10" stroke-linecap="round" stroke-linejoin="round"/>
<path d="M345.69 108.412C345.69 108.412 348.35 110.072 351.01 107.412" stroke="#263238" stroke-miterlimit="10" stroke-linecap="round" stroke-linejoin="round"/>
<path d="M380.12 108.242C380.42 105.372 381 100.612 381.1 99.742L377.79 97.932C377.79 97.932 378.79 110.242 377.46 117.062C376.13 123.882 373.8 126.042 371.14 127.042C368.48 128.042 367.15 126.712 367.15 126.712C367.15 126.712 360.83 120.722 355.17 120.562C350.23 120.412 346.44 125.842 345.55 127.232C346.6 131.512 347.68 136.192 348.68 138.192C350.18 141.182 353.34 144.012 357.99 144.012C362.64 144.012 367.8 140.182 370.3 137.692C372.79 135.202 377.12 131.702 379.45 127.212C381.79 122.712 379.79 111.402 380.12 108.242Z" fill="#263238" stroke="#263238" stroke-miterlimit="10" stroke-linecap="round" stroke-linejoin="round"/>
<path d="M363.16 131.692C363.16 131.692 359.67 126.702 356.34 125.872C353.01 125.042 349.52 131.532 350.69 132.692C351.85 133.852 353.52 129.532 356.68 130.862C359.83 132.192 361.66 134.352 363.16 131.692Z" fill="white" stroke="#263238" stroke-miterlimit="10" stroke-linecap="round" stroke-linejoin="round"/>
<path d="M342.7 78.142C342.7 78.142 337.71 76.642 334.55 78.312C331.39 79.972 329.89 83.632 329.89 83.632L336.38 84.132L339.37 85.632C339.37 85.632 338.04 85.632 337.37 87.462C336.7 89.292 336.21 91.452 336.21 91.452C336.21 91.452 338.54 90.122 342.2 89.622C345.86 89.122 353.01 86.962 353.01 86.962L353.84 92.452C353.84 92.452 358 89.792 361.32 88.792C364.65 87.792 366.64 85.632 366.64 85.632C366.64 85.632 375.29 88.962 375.12 90.452C374.95 91.952 371.96 95.612 372.96 96.772C373.96 97.932 376.62 100.432 376.62 100.432L386.6 106.082C386.6 106.082 390.26 100.432 392.09 91.442C393.92 82.462 385.6 72.812 378.62 70.152C371.63 67.492 366.48 68.492 362.15 68.652C357.83 68.822 351.84 67.492 351.84 67.492L355.83 71.652C355.83 71.652 352 73.152 350.34 73.482C348.68 73.812 345.85 74.642 345.18 74.312C344.51 73.982 342.19 72.482 342.19 72.482C342.19 72.482 341.04 77.472 342.7 78.142Z" fill="#263238" stroke="#263238" stroke-miterlimit="10" stroke-linecap="round" stroke-linejoin="round"/>
<path d="M382.78 115.232C382.78 115.232 385.27 113.902 386.61 111.902C387.94 109.902 391.77 102.252 387.28 100.092C383.88 98.452 381.62 101.392 380.73 102.922C380.53 104.652 380.29 106.722 380.13 108.242C379.8 111.402 381.79 122.712 379.46 127.202C377.13 131.692 372.81 135.182 370.31 137.682C369.35 138.642 368 139.792 366.44 140.852L370.64 142.012C370.64 142.012 371.97 146.172 375.63 150.832C379.29 155.492 382.45 158.482 382.45 158.482C382.45 158.482 383.45 152.492 386.11 139.192C388.77 125.882 386.78 118.232 386.78 118.232L382.78 115.232Z" fill="white" stroke="#263238" stroke-miterlimit="10" stroke-linecap="round" stroke-linejoin="round"/>
<path d="M370.64 142.002L376.46 143.662L373.63 147.822C373.64 147.832 371.31 144.002 370.64 142.002Z" fill="#263238" stroke="#263238" stroke-miterlimit="10" stroke-linecap="round" stroke-linejoin="round"/>
<path d="M405.76 137.552L410.58 258.172L421.39 258.942C421.39 258.942 430.65 219.962 433.36 206.642C436.06 193.322 437.03 184.832 436.83 174.222C436.64 163.612 434.13 141.602 434.13 141.602C434.13 141.602 428.53 132.142 423.71 128.862" fill="#FF6561"/>
<path d="M405.76 137.552L410.58 258.172L421.39 258.942C421.39 258.942 430.65 219.962 433.36 206.642C436.06 193.322 437.03 184.832 436.83 174.222C436.64 163.612 434.13 141.602 434.13 141.602C434.13 141.602 428.53 132.142 423.71 128.862" stroke="#263238" stroke-miterlimit="10" stroke-linecap="round" stroke-linejoin="round"/>
<path d="M427.71 160.102C428.71 156.952 429.31 154.912 429.31 154.912" stroke="#263238" stroke-miterlimit="10" stroke-linecap="round" stroke-linejoin="round"/>
<path d="M408.65 207.412C408.65 207.412 413.28 196.602 418.69 184.642C421.63 178.122 424.52 169.892 426.54 163.742" stroke="#263238" stroke-miterlimit="10" stroke-linecap="round" stroke-linejoin="round"/>
<path d="M421.49 191.072C421.19 191.902 420.89 192.602 420.62 193.132" stroke="#263238" stroke-miterlimit="10" stroke-linecap="round" stroke-linejoin="round"/>
<path d="M427.18 169.002C427.18 169.002 424.8 180.342 422.56 187.812" stroke="#263238" stroke-miterlimit="10" stroke-linecap="round" stroke-linejoin="round"/>
<path d="M410.58 247.552L423.51 248.132" stroke="#263238" stroke-miterlimit="10" stroke-linecap="round" stroke-linejoin="round"/>
<path d="M410.58 258.162C410.58 258.162 409.07 276.782 409.07 278.392C409.07 280.002 410.36 291.752 410.68 292.712C411 293.682 419.21 299.792 420.01 299.792C420.81 299.792 425.32 300.272 426.13 298.992C426.93 297.702 427.26 296.902 426.13 296.582C425 296.262 421.95 296.422 421.95 296.422L420.18 295.622C420.18 295.622 426.78 294.982 427.26 294.822C427.74 294.662 430.16 293.052 430.64 291.922C431.12 290.792 430.32 289.512 430.32 289.512C430.32 289.512 432.73 287.262 432.9 286.452C433.06 285.652 433.22 283.392 432.1 283.712C430.98 284.032 429.36 285.802 429.36 285.802H425.34C425.34 285.802 429.52 283.062 430.01 282.262C430.49 281.462 431.14 278.082 430.98 277.112C430.82 276.142 428.73 277.272 428.24 278.242C427.76 279.212 426.95 281.782 426.95 281.782L422.12 282.422L420.51 280.332C420.51 280.332 423.73 270.352 423.73 268.262C423.73 266.172 421.4 258.942 421.4 258.942L410.58 258.162Z" fill="white" stroke="#263238" stroke-miterlimit="10" stroke-linecap="round" stroke-linejoin="round"/>
<path d="M416.48 282.582C416.48 282.582 420.02 285.642 420.99 285.962C421.96 286.282 425.34 285.802 425.34 285.802" stroke="#263238" stroke-miterlimit="10" stroke-linecap="round" stroke-linejoin="round"/>
<path d="M414.38 286.122C414.38 286.122 419.85 290.952 421.3 290.952C422.75 290.952 430.31 289.502 430.31 289.502" stroke="#263238" stroke-miterlimit="10" stroke-linecap="round" stroke-linejoin="round"/>
<path d="M413.26 290.302C413.26 290.302 416.48 294.162 417.44 294.482C418.4 294.802 420.18 295.612 420.18 295.612" stroke="#263238" stroke-miterlimit="10" stroke-linecap="round" stroke-linejoin="round"/>
</svg>
